<svg width="280" height="16" xmlns="http://www.w3.org/2000/svg" viewBox="0 0 157.57 8.58"><defs><style>.vitahustle-logo-fill{fill:#212121}</style></defs><g><g><g><path class="vitahustle-logo-fill" d="M5.44,6.72c-.03.1-.09.18-.16.24-.07.06-.14.09-.22.09-.16,0-.28-.1-.36-.3L1.96.06H0l2.97,7.2c.17.42.44.74.83.97.39.23.81.35,1.27.35s.9-.12,1.29-.36c.38-.24.66-.57.82-.98L10.11.06h-1.91l-2.77,6.65Z"/><rect class="vitahustle-logo-fill" x="17.84" y=".06" width="1.83" height="8.52"/><polygon class="vitahustle-logo-fill" points="26.96 1.6 30.79 1.6 30.79 8.58 32.62 8.58 32.62 1.6 36.42 1.6 36.42 .06 26.96 .06 26.96 1.6"/><path class="vitahustle-logo-fill" d="M49.2.42c-.38-.24-.81-.36-1.3-.36-.23,0-.46.04-.67.1-.22.07-.42.17-.6.28-.19.12-.35.26-.49.43-.14.17-.25.35-.34.55l-2.97,7.15h1.93l.76-1.79h4.77l.74,1.79h1.96l-2.96-7.15c-.17-.43-.45-.77-.83-1.01ZM46.12,5.26l1.4-3.33c.08-.22.21-.33.37-.33s.29.12.39.35c.24.53.48,1.07.7,1.63.23.56.46,1.12.69,1.68h-3.55Z"/></g><polygon class="vitahustle-logo-fill" points="67.48 3.09 63.03 3.09 63.03 .06 61.19 .06 61.19 8.58 63.03 8.58 63.03 4.62 67.48 4.62 67.48 8.58 69.31 8.58 69.31 .06 67.48 .06 67.48 3.09"/><path class="vitahustle-logo-fill" d="M83.85,6.42c0,.17-.07.31-.22.44-.15.13-.33.19-.55.19h-1.92c-.24,0-.47-.04-.68-.11-.21-.08-.39-.18-.55-.31-.16-.13-.28-.28-.37-.46-.09-.17-.14-.36-.14-.56V.06h-1.83v5.54c0,.42.09.81.28,1.17.18.36.44.68.76.94.32.27.7.48,1.13.64.43.16.9.23,1.4.23h1.92c.36,0,.7-.06,1.02-.17.31-.11.59-.27.83-.46.24-.19.42-.42.56-.69.14-.27.21-.55.21-.84V.06h-1.83v6.36Z"/><path class="vitahustle-logo-fill" d="M101.21,5.06c-.25-.28-.58-.51-1.02-.69l-3.8-1.63c-.24-.09-.41-.2-.49-.33-.09-.13-.11-.26-.06-.38.05-.12.16-.22.32-.31.17-.09.39-.13.67-.13h4.41V.06h-4.41c-.51,0-.95.07-1.33.22-.38.15-.69.35-.93.59-.24.24-.4.51-.49.81-.09.3-.1.6-.02.9s.23.58.47.85c.24.27.57.5,1,.68l3.78,1.65c.28.12.45.25.53.4s.09.29.03.42c-.06.13-.18.24-.36.33-.18.09-.39.14-.64.14h-4.89v1.53h4.89c.51,0,.97-.08,1.36-.24s.71-.36.95-.61c.24-.25.41-.53.51-.85.09-.32.1-.63.03-.94-.07-.31-.23-.6-.48-.88Z"/><polygon class="vitahustle-logo-fill" points="109.02 1.6 112.85 1.6 112.85 8.58 114.69 8.58 114.69 1.6 118.49 1.6 118.49 .06 109.02 .06 109.02 1.6"/><path class="vitahustle-logo-fill" d="M128.65,6.94c-.23-.08-.42-.18-.59-.31-.17-.13-.3-.28-.4-.46-.1-.17-.15-.36-.15-.56V.06h-1.83v5.54c0,.42.1.81.29,1.17.19.36.45.68.79.94.33.27.73.48,1.18.64.45.16.94.23,1.45.23h4.03v-1.53h-4.03c-.26,0-.5-.04-.72-.11Z"/><path class="vitahustle-logo-fill" d="M142.9.25c-.32.12-.61.29-.85.5-.24.21-.43.45-.57.73-.14.28-.21.57-.21.88v4.06c0,.3.07.58.2.84.13.27.32.5.55.69.24.2.51.36.83.47.32.11.66.17,1.02.17h5.29v-1.53h-5.29c-.22,0-.4-.06-.55-.19-.15-.13-.22-.28-.22-.46v-1.64h6.06v-1.53h-6.06v-.89c0-.2.08-.38.24-.52.16-.15.36-.22.59-.22h5.22V.06h-5.22c-.37,0-.72.06-1.05.18Z"/><path class="vitahustle-logo-fill" d="M155.87,0c-.95,0-1.7.73-1.7,1.65s.76,1.67,1.7,1.67,1.69-.74,1.69-1.67-.74-1.65-1.69-1.65ZM155.88,2.97c-.75,0-1.29-.58-1.29-1.32s.54-1.32,1.28-1.32,1.27.6,1.27,1.33-.53,1.31-1.26,1.31Z"/><path class="vitahustle-logo-fill" d="M156.26,1.7v-.02c.2-.06.34-.2.34-.38,0-.16-.07-.29-.16-.36-.12-.07-.26-.12-.57-.12-.27,0-.48.02-.63.05v1.65h.38v-.67h.18c.21,0,.31.08.34.26.05.19.08.34.13.4h.41c-.04-.06-.07-.16-.12-.41-.05-.22-.14-.34-.3-.4ZM155.8,1.58h-.18v-.47s.11-.02.21-.02c.24,0,.35.1.35.25,0,.17-.17.24-.38.24Z"/></g></g></svg>
